<?xml version="1.0" encoding="UTF-8"?>
<svg version="1.1" xmlns="http://www.w3.org/2000/svg" width="500" height="500">
<path d="M0 0 C1.92102539 -0.01160156 1.92102539 -0.01160156 3.88085938 -0.0234375 C11.82899685 -0.0072416 19.2699866 0.74026679 27.0625 2.25 C28.5886561 2.49451099 30.11594671 2.73209836 31.64453125 2.9609375 C54.06763228 6.43720614 75.1400367 13.49758277 95.15185547 24.22900391 C97.08204202 25.26044272 99.02649202 26.26082047 100.97265625 27.26171875 C111.95610115 33.04397628 121.4713664 40.41553775 131.0625 48.25 C131.67448242 48.73275391 132.28646484 49.21550781 132.91699219 49.71289062 C134.3359102 50.84702872 135.70531887 52.04266537 137.0625 53.25 C137.0625 53.91 137.0625 54.57 137.0625 55.25 C137.866875 55.5903125 137.866875 55.5903125 138.6875 55.9375 C143.24505553 58.45614911 147.30013452 61.79952228 150.0625 66.25 C150.0625 66.91 150.0625 67.57 150.0625 68.25 C151.0525 68.58 152.0425 68.91 153.0625 69.25 C154.8515625 71.0625 154.8515625 71.0625 156.6875 73.25 C157.60402344 74.3328125 157.60402344 74.3328125 158.5390625 75.4375 C159.29316406 76.3346875 159.29316406 76.3346875 160.0625 77.25 C162.14454358 79.33204358 166.5963556 78.50821292 169.47265625 78.56640625 C170.31469101 78.58718735 171.15672577 78.60796844 172.02427673 78.62937927 C174.72443179 78.69496812 177.42468717 78.75380276 180.125 78.8125 C181.95118241 78.85567637 183.77735454 78.89929036 185.60351562 78.94335938 C190.08973992 79.05065894 194.5760655 79.15189966 199.0625 79.25 C200.24603677 97.48372716 200.37709952 115.73527156 200.59472656 133.99975586 C200.64571482 138.21080986 200.70098962 142.42180761 200.75585938 146.6328125 C200.86217053 154.83849359 200.96387611 163.04422293 201.0625 171.25 C201.8191243 171.36967636 202.5757486 171.48935272 203.3553009 171.61265564 C209.80279346 172.65589744 216.16074809 173.85854526 222.51171875 175.37890625 C223.33581741 175.57346909 224.15991608 175.76803192 225.00898743 175.9684906 C226.72251773 176.37410239 228.43558746 176.78166479 230.14819336 177.19116211 C232.78170444 177.82007134 235.41708512 178.44066633 238.05273438 179.06054688 C239.72667827 179.45784587 241.40051079 179.85561449 243.07421875 180.25390625 C244.25681526 180.53204918 244.25681526 180.53204918 245.46330261 180.81581116 C250.9473797 182.1348797 250.9473797 182.1348797 252.0625 183.25 C252.15793095 184.64143689 252.18438575 186.03768367 252.18275452 187.43238831 C252.18481651 188.78492203 252.18481651 188.78492203 252.18692017 190.16477966 C252.18332489 191.16171341 252.17972961 192.15864716 252.17602539 193.18579102 C252.17617142 194.22956909 252.17631744 195.27334717 252.1764679 196.34875488 C252.17576826 199.81715943 252.16797353 203.28551103 252.16015625 206.75390625 C252.15829225 209.15144318 252.15686826 211.5489805 252.15586853 213.94651794 C252.15204194 220.27095584 252.14221046 226.59537094 252.13116455 232.9197998 C252.12095345 239.36775402 252.11637156 245.81571191 252.11132812 252.26367188 C252.10058832 264.925791 252.08370119 277.58789429 252.0625 290.25 C250.63962344 289.78666202 249.21768683 289.32043696 247.79614258 288.85302734 C247.00419998 288.59371429 246.21225739 288.33440125 245.39631653 288.06723022 C242.04786323 286.89470565 238.94647205 285.41908814 235.75 283.875 C230.10970137 281.18303929 224.4268275 278.67177034 218.640625 276.3046875 C216.51864918 275.43660648 214.41318176 274.54286545 212.3125 273.625 C208.59803939 272.05349744 204.84683716 270.64422948 201.0625 269.25 C200.81814209 270.32858276 200.81814209 270.32858276 200.56884766 271.42895508 C198.73402414 279.17480805 196.3182531 286.5216503 193.4375 293.9375 C193.00163574 295.06583252 192.56577148 296.19416504 192.11669922 297.35668945 C188.422346 306.72074667 184.08122453 315.53657702 179.0625 324.25 C178.74031494 324.83233398 178.41812988 325.41466797 178.08618164 326.01464844 C175.72853317 330.25219436 173.09593057 334.20117391 170.25 338.125 C169.58979858 339.04007324 169.58979858 339.04007324 168.91625977 339.97363281 C163.39957142 347.58688417 157.67062591 354.82723947 151.3203125 361.76953125 C149.1742254 364.1272567 147.08683246 366.5274131 145 368.9375 C141.3026105 373.09342402 137.34554644 376.70985365 133.0625 380.25 C132.15886719 381.00667969 131.25523437 381.76335937 130.32421875 382.54296875 C117.41639478 393.25 117.41639478 393.25 114.0625 393.25 C114.0625 393.91 114.0625 394.57 114.0625 395.25 C112.65161133 396.328125 112.65161133 396.328125 110.64453125 397.5 C109.8961499 397.93852295 109.14776855 398.3770459 108.37670898 398.82885742 C107.55114502 399.29783447 106.72558105 399.76681152 105.875 400.25 C105.017854 400.73766846 104.16070801 401.22533691 103.27758789 401.7277832 C60.05552801 425.98310153 12.05867575 435.63063172 -36.95751953 426.60986328 C-38.72673171 426.28830733 -40.50179649 425.99934664 -42.27734375 425.71484375 C-47.06241477 424.93374162 -51.2829098 423.79115416 -55.7980957 422.04833984 C-57.88075324 421.27117561 -59.97092583 420.58442591 -62.09375 419.92578125 C-71.31941948 417.04645234 -79.86228396 413.6104044 -88.4140625 409.10546875 C-91.18823814 407.64456695 -93.96585398 406.30673683 -96.8125 405 C-115.02314949 395.89467525 -130.35928789 382.20881015 -144.9375 368.25 C-145.44941895 367.76144531 -145.96133789 367.27289063 -146.48876953 366.76953125 C-151.19750225 362.25328881 -155.6159849 357.73126707 -159.3984375 352.40625 C-160.53312343 350.81653773 -161.71200157 349.25814819 -162.9140625 347.71875 C-177.85068018 328.50698733 -189.5493854 306.4430686 -196.9375 283.25 C-197.54058713 281.45796967 -198.14462131 279.6662575 -198.75 277.875 C-199.141875 276.67875 -199.53375 275.4825 -199.9375 274.25 C-201.72607422 274.99056641 -201.72607422 274.99056641 -203.55078125 275.74609375 C-205.11716549 276.39328245 -206.68357295 277.04041494 -208.25 277.6875 C-209.42852539 278.17573242 -209.42852539 278.17573242 -210.63085938 278.67382812 C-211.38818359 278.98642578 -212.14550781 279.29902344 -212.92578125 279.62109375 C-213.62227783 279.90911865 -214.31877441 280.19714355 -215.03637695 280.49389648 C-216.64893487 281.13523357 -218.29114321 281.7012144 -219.9375 282.25 C-220.9375 281.25 -220.9375 281.25 -221.06054783 278.89366817 C-221.05962604 277.84005879 -221.05870424 276.78644941 -221.05775452 275.70091248 C-221.05912918 274.49631378 -221.06050385 273.29171509 -221.06192017 272.0506134 C-221.05838056 270.70358252 -221.05474575 269.35655188 -221.05102539 268.00952148 C-221.05074352 266.60052492 -221.05090125 265.19152821 -221.0514679 263.78253174 C-221.05175589 259.9459237 -221.04585894 256.10934666 -221.03889394 252.27274585 C-221.03266063 248.26753059 -221.03205662 244.2623147 -221.03086853 240.25709534 C-221.02775515 232.66747996 -221.01954167 225.07787892 -221.00951904 217.48826987 C-220.99835812 208.84996076 -220.99284751 200.21165099 -220.98782361 191.57333648 C-220.97735906 173.79888285 -220.95975948 156.02444258 -220.9375 138.25 C-222.50921919 138.40257204 -224.08080854 138.55648195 -225.65234375 138.7109375 C-226.52753662 138.79649902 -227.40272949 138.88206055 -228.30444336 138.97021484 C-230.71176902 139.22601412 -233.10261803 139.54043131 -235.5 139.875 C-236.634375 139.99875 -237.76875 140.1225 -238.9375 140.25 C-239.9375 139.25 -239.9375 139.25 -240.05775452 136.85191345 C-240.05553391 135.78824051 -240.05331329 134.72456757 -240.05102539 133.62866211 C-240.05090454 132.4106189 -240.05078369 131.19257568 -240.05065918 129.93762207 C-240.04554321 128.64723022 -240.04042725 127.35683838 -240.03515625 126.02734375 C-240.03414917 124.84885864 -240.03314209 123.67037354 -240.03210449 122.45617676 C-240.02685316 118.03327468 -240.01289205 113.61038641 -240 109.1875 C-239.979375 99.308125 -239.95875 89.42875 -239.9375 79.25 C-213.2075 79.25 -186.4775 79.25 -158.9375 79.25 C-157.9475 77.27 -157.9475 77.27 -156.9375 75.25 C-153.44984125 71.08894995 -149.67612824 67.1851562 -145.9375 63.25 C-145.43782715 62.71632812 -144.9381543 62.18265625 -144.42333984 61.6328125 C-133.59684628 50.11451899 -121.43217888 40.47400056 -107.9375 32.25 C-106.31714844 31.2290625 -106.31714844 31.2290625 -104.6640625 30.1875 C-103.64054688 29.548125 -102.61703125 28.90875 -101.5625 28.25 C-100.54414063 27.610625 -99.52578125 26.97125 -98.4765625 26.3125 C-81.61598225 16.22078381 -62.26729621 8.73608348 -42.9375 5.25 C-41.8551709 5.04818115 -41.8551709 5.04818115 -40.75097656 4.84228516 C-36.54321486 4.06100071 -32.33087749 3.31902689 -28.10668945 2.63085938 C-26.56827318 2.36074915 -25.0356941 2.05638683 -23.50854492 1.72851562 C-15.6483044 0.09770615 -8.00970454 -0.04822702 0 0 Z " fill="#FAFAFA" transform="translate(243.9375,41.75)"/>
<path d="M0 0 C5.26621606 0.59578777 9.94408019 1.81308796 14.9375 3.5625 C15.62134766 3.79646484 16.30519531 4.03042969 17.00976562 4.27148438 C18.67508501 4.84211829 20.33782493 5.42027098 22 6 C21.39758356 11.94384225 19.72507179 17.15011764 17.6875 22.75 C17.36700684 23.64178955 17.04651367 24.5335791 16.71630859 25.45239258 C16.08662989 27.20357666 15.4548762 28.95401638 14.82080078 30.70361328 C14.17500437 32.51038336 13.56345687 34.32939738 12.96484375 36.15234375 C4.95837327 60.3207128 -11.62975684 82.73129598 -29 101 C-29.50370117 101.53093262 -30.00740234 102.06186523 -30.52636719 102.60888672 C-60.44694331 133.93447513 -99.31426969 153.90694377 -142 161 C-142.95052246 161.17136475 -143.90104492 161.34272949 -144.88037109 161.51928711 C-153.12654302 162.9250129 -161.14198394 163.34997502 -169.5 163.3125 C-170.81009033 163.30758545 -172.12018066 163.3026709 -173.4699707 163.29760742 C-190.49281501 163.09434647 -206.30087636 160.34298877 -222.61938477 155.64526367 C-224.32061671 155.18414624 -226.03407557 154.76722069 -227.75366211 154.38012695 C-235.79014146 152.5557899 -242.98587294 149.68225735 -250.4375 146.1875 C-251.34168167 145.76639954 -251.34168167 145.76639954 -252.26412964 145.33679199 C-268.51076201 137.72471665 -283.59935271 127.96108329 -297 116 C-297.72340576 115.35683838 -297.72340576 115.35683838 -298.46142578 114.70068359 C-302.02562801 111.52009288 -305.52337719 108.27604841 -309 105 C-309.7940625 104.26007813 -310.588125 103.52015625 -311.40625 102.7578125 C-324.53982892 90.13292854 -339.82059285 71.56265977 -345 54 C-345.66 54 -346.32 54 -347 54 C-350.13229219 46.59092423 -353.17740993 39.14693085 -356.1875 31.6875 C-356.53232422 30.84026367 -356.87714844 29.99302734 -357.23242188 29.12011719 C-362.38219152 16.30616004 -362.38219152 16.30616004 -362 10 C-358.33671014 8.65722827 -354.66937804 7.32603731 -351 6 C-349.865625 5.5875 -348.73125 5.175 -347.5625 4.75 C-345 4 -345 4 -341 4 C-340.74420166 4.78947021 -340.48840332 5.57894043 -340.22485352 6.39233398 C-335.25867681 21.58956487 -330.28424346 36.23809922 -322 50 C-321.23518201 51.3265376 -320.47086673 52.65336516 -319.70703125 53.98046875 C-298.24139532 90.4880094 -264.66973151 116.90658502 -225 131 C-224.29004883 131.25894043 -223.58009766 131.51788086 -222.84863281 131.78466797 C-213.92185483 135.00364125 -205.28782739 136.77324649 -195.83984375 137.640625 C-193.46964093 137.86245477 -191.10300942 138.1401295 -188.75097656 138.50756836 C-184.8682851 139.01729165 -181.05312772 139.19519098 -177.14453125 139.23828125 C-176.0417408 139.25304001 -176.0417408 139.25304001 -174.91667175 139.26809692 C-152.74231475 139.50378462 -134.13424497 137.33206501 -113.2578125 129.48828125 C-109.86161567 128.23740628 -106.60857304 127.43511733 -103 127 C-103 126.34 -103 125.68 -103 125 C-102.37738281 124.78988281 -101.75476563 124.57976562 -101.11328125 124.36328125 C-84.85953472 118.26529266 -70.13768685 108.06899825 -57.45654297 96.33300781 C-56.11471337 95.10498408 -54.73272347 93.92122852 -53.34765625 92.7421875 C-26.95305791 70.14207328 -6.01216653 34.2271586 0 0 Z " fill="#272324" transform="translate(415,300)"/>
<path d="M0 0 C12.87 0 25.74 0 39 0 C43.49647391 7.86882934 43.49647391 7.86882934 45 12.58203125 C45.495 14.10473633 45.495 14.10473633 46 15.65820312 C46.33 16.69912109 46.66 17.74003906 47 18.8125 C49.41013816 26.33005986 51.95749713 33.71235599 55 41 C57.09189474 38.90810526 57.57638656 37.79977988 58.515625 35.0625 C58.7945459 34.2578833 59.0734668 33.4532666 59.36083984 32.62426758 C59.6542627 31.75825928 59.94768555 30.89225098 60.25 30 C60.55502441 29.11530029 60.86004883 28.23060059 61.17431641 27.3190918 C63.55404287 20.39126563 65.87244559 13.44199196 68.13378906 6.47460938 C69.8927304 1.1072696 69.8927304 1.1072696 71 0 C73.95705321 -0.08868299 76.89065056 -0.11520296 79.84765625 -0.09765625 C81.17729652 -0.09553383 81.17729652 -0.09553383 82.53379822 -0.09336853 C85.37673254 -0.08775215 88.21958931 -0.07519691 91.0625 -0.0625 C92.98502491 -0.05748711 94.90755104 -0.05292384 96.83007812 -0.04882812 C101.55341549 -0.03777741 106.27669458 -0.02050183 111 0 C111.7998953 36.33800877 112.14558838 72.65341643 112 109 C108.7916874 109.02985118 105.5834118 109.04707494 102.375 109.0625 C101.04855469 109.07506836 101.04855469 109.07506836 99.6953125 109.08789062 C92.03528378 109.11524787 84.70754601 108.550539 77 108 C76.505 87.21 76.505 87.21 76 66 C74.68 70.29 73.36 74.58 72 79 C69.9375 84.0625 69.9375 84.0625 68.94140625 86.45703125 C67.52891655 90.27251173 66.620896 94.17962919 65.7109375 98.140625 C64.96577172 101.13766538 63.97660243 104.07019271 63 107 C58.05 107 53.1 107 48 107 C43.08508672 93.46217674 38.84573412 79.88216219 35 66 C34.67 79.53 34.34 93.06 34 107 C16.675 107.99 16.675 107.99 -1 109 C-1.02734595 97.95831381 -1.05092355 86.91670325 -1.0625 75.875 C-1.06335602 75.06424389 -1.06421204 74.25348778 -1.06509399 73.4181633 C-1.08796175 48.92363068 -0.84065537 24.48408775 0 0 Z " fill="#010101" transform="translate(198,134)"/>
<path d="M0 0 C13.2 0 26.4 0 40 0 C40.99 42.57 41.98 85.14 43 129 C46.63 129.99 50.26 130.98 54 132 C54 119.13 54 106.26 54 93 C61.95470493 93.66289208 68.76506215 94.40709123 76.3125 96.4375 C77.15361328 96.65470703 77.99472656 96.87191406 78.86132812 97.09570312 C83.59735699 98.3268488 88.29308904 99.6551683 93 101 C93 125.75 93 150.5 93 176 C84.42567108 173.85641777 76.32560025 170.16230564 68.2434082 166.63427734 C60.70740733 163.34679169 53.31598964 160.27192901 45.390625 158.03125 C40.07620804 156.41488355 34.90219338 154.42605743 29.70849609 152.46044922 C22.93184259 149.91226815 16.12654155 147.97715375 9.0625 146.375 C7.04166667 145.91666667 5.02083333 145.45833333 3 145 C2.09016553 134.85072463 1.71422577 124.73175067 1.46484375 114.55078125 C1.42148514 112.86523575 1.37797871 111.17969404 1.33433533 109.49415588 C1.21991818 105.02086825 1.11089519 100.54746606 1.00380707 96.0739975 C0.93735763 93.30657058 0.86956955 90.53917889 0.80157471 87.77178955 C0.08709455 58.49959089 -0.18417665 29.28408729 0 0 Z " fill="#030303" transform="translate(391,133)"/>
<path d="M0 0 C1.37840309 -0.00287018 1.37840309 -0.00287018 2.78465271 -0.00579834 C4.7114998 -0.00714893 6.63835635 -0.003532 8.56518555 0.00488281 C11.49223489 0.01561086 14.41867235 0.00494252 17.34570312 -0.0078125 C19.23047009 -0.00649095 21.11523667 -0.00392864 23 0 C23.8627504 -0.00404846 24.72550079 -0.00809692 25.61439514 -0.01226807 C32.37507907 0.03921121 39.71148305 0.30230957 45.37109375 4.390625 C50.5094111 10.15556642 50.22218613 17.53785374 50.16064453 24.89453125 C50.16093658 25.82228867 50.16122864 26.75004608 50.16152954 27.70591736 C50.16014558 30.74675119 50.14462856 33.78733442 50.12890625 36.828125 C50.1251728 38.94661322 50.1223274 41.06510318 50.12033081 43.18359375 C50.11272052 48.74022244 50.09309447 54.2967454 50.07092285 59.85333252 C50.05040822 65.53111338 50.0413171 71.20891145 50.03125 76.88671875 C50.00984605 88.0130671 49.97574168 99.13933724 49.93359375 110.265625 C45.77168306 110.84041964 41.60908903 111.40990038 37.44580078 111.97460938 C36.031542 112.16718379 34.61747506 112.36117284 33.20361328 112.55664062 C31.16358253 112.83842077 29.12290093 113.11499488 27.08203125 113.390625 C25.85661621 113.55820313 24.63120117 113.72578125 23.36865234 113.8984375 C19.93359375 114.265625 19.93359375 114.265625 13.93359375 114.265625 C13.93359375 107.665625 13.93359375 101.065625 13.93359375 94.265625 C10.30359375 94.265625 6.67359375 94.265625 2.93359375 94.265625 C2.93359375 101.855625 2.93359375 109.445625 2.93359375 117.265625 C-1.23285803 117.91287004 -5.39955402 118.55846745 -9.56640625 119.203125 C-11.32597656 119.47672852 -11.32597656 119.47672852 -13.12109375 119.75585938 C-14.26835938 119.93310547 -15.415625 120.11035156 -16.59765625 120.29296875 C-17.64501953 120.45531006 -18.69238281 120.61765137 -19.77148438 120.78491211 C-23.53113844 121.33342714 -27.29502182 121.80495684 -31.06640625 122.265625 C-31.26072294 51.61939114 -31.26072294 51.61939114 -30.85787964 31.02059937 C-30.83050958 29.53244574 -30.80964102 28.04415651 -30.79568481 26.55581665 C-30.69654003 17.00752727 -30.07101959 11.55628215 -23.44140625 4.453125 C-17.06714471 -0.43192182 -7.67337022 -0.03609202 0 0 Z " fill="#030303" transform="translate(137.06640625,133.734375)"/>
<path d="M0 0 C27.06 0 54.12 0 82 0 C82 8.58 82 17.16 82 26 C77.2624432 30.7375568 68.69065665 27.64786018 62 28 C61.34 69.58 60.68 111.16 60 154 C53.11343601 156.7546256 46.42863394 159.22610259 39.39453125 161.4609375 C32.81887378 163.66122135 26.42232169 166.39352304 20 169 C19.86735349 134.57777829 20.03908382 100.16922682 20.5 65.75 C20.51195782 64.85669353 20.52391563 63.96338707 20.53623581 63.04301071 C20.68427412 52.02857742 20.83950701 41.01425846 21 30 C10.605 30.495 10.605 30.495 0 31 C0 20.77 0 10.54 0 0 Z " fill="#030303" transform="translate(15,133)"/>
<path d="M0 0 C1.5166626 0.05800781 1.5166626 0.05800781 3.06396484 0.1171875 C50.28601681 2.09781944 94.42124511 25.60034643 128 58 C129.18916016 59.12921875 129.18916016 59.12921875 130.40234375 60.28125 C133.9112889 63.68232522 136.51869504 66.77021745 139 71 C134.71349008 71.17412392 130.42889477 71.30055511 126.13989258 71.38452148 C124.68379837 71.41954781 123.22794726 71.46718806 121.77270508 71.52807617 C109.6885185 72.02071687 109.6885185 72.02071687 105.75610352 69.64355469 C104.0625 67.88671875 104.0625 67.88671875 102.55639648 65.95825195 C99.70555058 62.37132882 95.78087384 59.99825783 92.0625 57.375 C91.30259766 56.8284375 90.54269531 56.281875 89.75976562 55.71875 C82.55855316 50.57766237 75.26167588 45.95473876 67.3125 42.0625 C66.62188477 41.72259033 65.93126953 41.38268066 65.21972656 41.0324707 C63.81587291 40.34427231 62.41077701 39.65860164 61.00439453 38.97558594 C59.1634467 38.07955335 57.32940871 37.16936041 55.49609375 36.2578125 C48.42523241 32.83725142 41.66463246 30.63667181 34 29 C32.60224654 28.67058022 31.20515032 28.33836381 29.80859375 28.00390625 C5.57491074 22.27120704 -18.52984853 20.89270917 -43 26 C-44.27786377 26.25740967 -44.27786377 26.25740967 -45.58154297 26.52001953 C-59.15136646 29.30261665 -72.49933756 32.9835358 -84.5390625 40.02734375 C-88 42 -88 42 -91.30078125 43.34375 C-96.30563597 45.4187636 -100.70064831 48.49759619 -105.1875 51.5 C-106.11643066 52.11786377 -107.04536133 52.73572754 -108.00244141 53.37231445 C-114.38493202 57.69951168 -120.03684269 62.29292672 -125.4296875 67.79296875 C-128.4369033 70.37515253 -131.31271178 71.58467725 -135 73 C-137.36417445 74.06942233 -139.72428514 75.14696064 -142.08203125 76.23046875 C-144 77 -144 77 -146 77 C-146 75.02 -146 73.04 -146 71 C-150.29 71 -154.58 71 -159 71 C-157.95470632 66.81882526 -157.25227929 65.86022615 -154.34375 62.91015625 C-153.57667725 62.13188477 -152.80960449 61.35361328 -152.01928711 60.55175781 C-150.77223999 59.3195752 -150.77223999 59.3195752 -149.5 58.0625 C-148.64865479 57.21655273 -147.79730957 56.37060547 -146.92016602 55.49902344 C-139.65972281 48.40877315 -132.00050074 42.14341749 -123.74804688 36.25292969 C-122.28793567 35.20638071 -120.85171345 34.12660629 -119.421875 33.0390625 C-106.31243618 23.27573919 -91.41426248 16.21812001 -76 11 C-74.71354143 10.53746041 -73.42837308 10.07131635 -72.14453125 9.6015625 C-61.43902666 5.69839644 -51.30298343 3.28507613 -40 1.875 C-39.28858856 1.78595398 -38.57717712 1.69690796 -37.84420776 1.60516357 C-25.17104664 0.04744933 -12.77056737 -0.59858596 0 0 Z " fill="#272324" transform="translate(255,51)"/>
<path d="M0 0 C19.8 0 39.6 0 60 0 C61.125 9 61.125 9 61.09765625 12.28125 C61.09443359 12.97734375 61.09121094 13.6734375 61.08789062 14.390625 C61.07532227 15.43476563 61.07532227 15.43476563 61.0625 16.5 C61.05798828 17.22703125 61.05347656 17.9540625 61.04882812 18.703125 C61.03721193 20.46878681 61.01928441 22.2344053 61 24 C56.71 24 52.42 24 48 24 C48.10828125 25.87171875 48.10828125 25.87171875 48.21875 27.78125 C49.39962154 50.83666179 49.09388737 73.92222827 49 97 C49.67546875 97.06058594 50.3509375 97.12117188 51.046875 97.18359375 C52.38492188 97.30927734 52.38492188 97.30927734 53.75 97.4375 C54.63171875 97.51871094 55.5134375 97.59992188 56.421875 97.68359375 C59 98 59 98 63 99 C63 106.26 63 113.52 63 121 C58.02229879 120.28889983 53.06593151 119.5313721 48.109375 118.6953125 C46.58756735 118.44025352 45.06575737 118.18520845 43.54394531 117.93017578 C42.75942993 117.79838928 41.97491455 117.66660278 41.16662598 117.53082275 C27.78813168 115.28417911 14.40556881 113.08017447 1 111 C1 104.73 1 98.46 1 92 C5.29 92 9.58 92 14 92 C13.67 67.91 13.34 43.82 13 19 C8.71 19 4.42 19 0 19 C0 12.73 0 6.46 0 0 Z " fill="#010101" transform="translate(320,134)"/>
<path d="M0 0 C4.95 0 9.9 0 15 0 C17.25314525 7.88600839 17.25314525 7.88600839 17.8515625 11.078125 C17.98046875 11.76390625 18.109375 12.4496875 18.2421875 13.15625 C18.36851562 13.8471875 18.49484375 14.538125 18.625 15.25 C18.7590625 15.95640625 18.893125 16.6628125 19.03125 17.390625 C19.57258171 20.30718771 20 23.02676623 20 26 C20.66 26 21.32 26 22 26 C22 17.75 22 9.5 22 1 C30 1 30 1 37 2 C37 28.07 37 54.14 37 81 C31.72 81 26.44 81 21 81 C20.32246768 78.16888282 19.65781273 75.33570624 19 72.5 C18.80921875 71.70851563 18.6184375 70.91703125 18.421875 70.1015625 C17.23665059 64.93737043 16.80558718 60.29774939 17 55 C16.01 55 15.02 55 14 55 C14 63.25 14 71.5 14 80 C9.38 80 4.76 80 0 80 C0 53.6 0 27.2 0 0 Z " fill="#030303" transform="translate(266,260)"/>
<path d="M0 0 C0.89396484 -0.01611328 1.78792969 -0.03222656 2.70898438 -0.04882812 C7.62256015 -0.05247592 11.14276478 0.01754231 15.0625 3.3125 C18.47918552 6.84306315 18.4279574 9.65740342 18.40307617 14.46777344 C18.40373329 15.53666557 18.40373329 15.53666557 18.40440369 16.62715149 C18.40231851 18.97567421 18.3790012 21.32347745 18.35546875 23.671875 C18.34987181 25.30283213 18.34560217 26.93379432 18.34260559 28.5647583 C18.33116449 32.85237614 18.30170378 37.13968793 18.26849365 41.42718506 C18.23777685 45.80427918 18.22409682 50.18142286 18.20898438 54.55859375 C18.17683318 63.1433851 18.12407139 71.72786919 18.0625 80.3125 C13.1125 80.3125 8.1625 80.3125 3.0625 80.3125 C3.0625 75.3625 3.0625 70.4125 3.0625 65.3125 C1.0825 65.3125 -0.8975 65.3125 -2.9375 65.3125 C-2.9375 70.2625 -2.9375 75.2125 -2.9375 80.3125 C-7.5575 80.3125 -12.1775 80.3125 -16.9375 80.3125 C-17.00539328 71.17615356 -17.0603837 62.03997586 -17.09293652 52.9034338 C-17.10856363 48.66054313 -17.12974757 44.41783466 -17.16381836 40.17504883 C-17.1965177 36.07720217 -17.21437523 31.97953029 -17.22213173 27.88156319 C-17.22765632 26.32152113 -17.23844447 24.76148817 -17.25469017 23.20152092 C-17.27660575 21.0090589 -17.27946114 18.81731055 -17.27807617 16.62475586 C-17.28473801 15.37899277 -17.29139984 14.13322968 -17.29826355 12.84971619 C-16.87229799 8.67320706 -15.83870843 6.03951791 -13.9375 2.3125 C-9.87057476 -0.72319718 -4.86193552 -0.01745131 0 0 Z " fill="#010101" transform="translate(242.9375,259.6875)"/>
<path d="M0 0 C1.09441406 -0.02578125 2.18882812 -0.0515625 3.31640625 -0.078125 C6.832499 0.2915268 8.62942577 1.13777545 11.4375 3.25 C13.89267512 6.93276269 13.68009705 8.71633387 13.66455078 13.1081543 C13.66484283 13.80109589 13.66513489 14.49403748 13.66543579 15.20797729 C13.66404319 17.49685212 13.64848557 19.78540084 13.6328125 22.07421875 C13.62908211 23.66176679 13.62623526 25.24931712 13.62423706 26.83686829 C13.6166026 31.01427574 13.59695575 35.19154401 13.5748291 39.36889648 C13.55436663 43.63197955 13.54523449 47.8950851 13.53515625 52.15820312 C13.51370963 60.52220639 13.47852905 68.88606984 13.4375 77.25 C8.4875 77.25 3.5375 77.25 -1.5625 77.25 C-1.5625 72.63 -1.5625 68.01 -1.5625 63.25 C-3.2125 63.25 -4.8625 63.25 -6.5625 63.25 C-6.5625 67.87 -6.5625 72.49 -6.5625 77.25 C-11.5125 77.25 -16.4625 77.25 -21.5625 77.25 C-21.67560651 68.48755144 -21.76727593 59.72559022 -21.82156086 50.96257591 C-21.84761926 46.89323104 -21.88294705 42.82441286 -21.93969727 38.75537109 C-21.99415351 34.82607497 -22.0239488 30.89728438 -22.03688622 26.96763992 C-22.0461019 25.47091339 -22.06409863 23.97421352 -22.09115028 22.47770309 C-22.32030325 9.27176849 -22.32030325 9.27176849 -19.15307617 5.36572266 C-13.28020397 0.56934998 -7.48770023 0.10608312 0 0 Z " fill="#050505" transform="translate(167.5625,263.75)"/>
<path d="M0 0 C1.47472615 0.02118099 2.94927543 0.07429663 4.421875 0.15625 C5.14761719 0.1665625 5.87335938 0.176875 6.62109375 0.1875 C13.49557353 0.38356359 20.57862964 1.37906237 26.171875 5.65625 C28.63729341 9.26877281 28.37599861 12.63357496 28.296875 16.90625 C28.27882813 18.16953125 28.26078125 19.4328125 28.2421875 20.734375 C28.21898437 21.69859375 28.19578125 22.6628125 28.171875 23.65625 C26.4427976 23.68350341 24.71359324 23.70275987 22.984375 23.71875 C21.53998047 23.73615234 21.53998047 23.73615234 20.06640625 23.75390625 C17.31610987 23.66111622 14.84707909 23.27736685 12.171875 22.65625 C12.171875 21.33625 12.171875 20.01625 12.171875 18.65625 C10.851875 18.65625 9.531875 18.65625 8.171875 18.65625 C8.171875 33.17625 8.171875 47.69625 8.171875 62.65625 C9.491875 62.65625 10.811875 62.65625 12.171875 62.65625 C12.0996875 61.98722656 12.0275 61.31820312 11.953125 60.62890625 C11.08061764 51.60087876 11.09878209 42.71977073 11.171875 33.65625 C16.781875 33.98625 22.391875 34.31625 28.171875 34.65625 C28.171875 52.14625 28.171875 69.63625 28.171875 87.65625 C22.891875 87.65625 17.611875 87.65625 12.171875 87.65625 C12.171875 84.02625 12.171875 80.39625 12.171875 76.65625 C9.6040625 76.7490625 9.6040625 76.7490625 6.984375 76.84375 C2.49825218 76.83224712 -0.34102857 76.72066808 -3.828125 73.65625 C-7.36496758 69.8975954 -8.33042711 67.63931425 -8.34570312 62.49243164 C-8.35831177 61.27088882 -8.37092041 60.04934601 -8.38391113 58.79078674 C-8.37176575 56.8234684 -8.37176575 56.8234684 -8.359375 54.81640625 C-8.3620722 53.44786809 -8.36595652 52.0793318 -8.37097168 50.71080017 C-8.37685817 47.84680888 -8.3683335 44.98331775 -8.34960938 42.11938477 C-8.32684079 38.45963915 -8.33993327 34.80106837 -8.36389923 31.141366 C-8.37839937 28.31619014 -8.37373183 25.49128973 -8.36338806 22.66610527 C-8.35944469 20.66428231 -8.37153384 18.66244837 -8.38391113 16.66065979 C-8.22690387 1.41032638 -8.22690387 1.41032638 0 0 Z " fill="#0A0A0A" transform="translate(314.828125,264.34375)"/>
<path d="M0 0 C10.19866049 0.24946364 18.13139952 2.41397062 28.65234375 4.62890625 C28.65234375 27.06890625 28.65234375 49.50890625 28.65234375 72.62890625 C23.70234375 72.62890625 18.75234375 72.62890625 13.65234375 72.62890625 C13.65234375 68.00890625 13.65234375 63.38890625 13.65234375 58.62890625 C12.00234375 58.62890625 10.35234375 58.62890625 8.65234375 58.62890625 C8.65234375 62.91890625 8.65234375 67.20890625 8.65234375 71.62890625 C3.70234375 71.62890625 -1.24765625 71.62890625 -6.34765625 71.62890625 C-6.43809503 63.10992079 -6.51145089 54.59130974 -6.55490494 46.07197285 C-6.57576277 42.11591542 -6.60404661 38.160204 -6.64941406 34.2043457 C-6.69293746 30.38529761 -6.71680694 26.56658192 -6.72716522 22.74730492 C-6.73454505 21.29164587 -6.74895645 19.83600463 -6.77057648 18.38048744 C-6.79969901 16.33830358 -6.80360889 14.29748571 -6.80175781 12.25512695 C-6.81064026 11.0937471 -6.81952271 9.93236725 -6.82867432 8.73579407 C-6.16013134 4.41768592 -4.38626113 1.1750217 0 0 Z " fill="#040404" transform="translate(353.34765625,269.37109375)"/>
<path d="M0 0 C1.13598633 0.00483398 1.13598633 0.00483398 2.29492188 0.00976562 C3.47344727 0.02233398 3.47344727 0.02233398 4.67578125 0.03515625 C5.47306641 0.03966797 6.27035156 0.04417969 7.09179688 0.04882812 C9.05732382 0.06059775 11.0228121 0.07853277 12.98828125 0.09765625 C12.67500664 3.76626678 12.33343224 7.43191468 11.98828125 11.09765625 C11.89957764 12.0712207 11.89957764 12.0712207 11.80908203 13.06445312 C10.66635364 25.45127998 8.88164621 37.69533449 6.94140625 49.98046875 C5.83469378 57.00483792 4.87313678 64.04209767 3.98828125 71.09765625 C0.63385461 70.95745645 -2.7201865 70.80947197 -6.07421875 70.66015625 C-7.01716797 70.62083984 -7.96011719 70.58152344 -8.93164062 70.54101562 C-14.02287353 70.31040229 -18.98236631 69.92774355 -24.01171875 69.09765625 C-24.13699951 68.30520508 -24.26228027 67.51275391 -24.39135742 66.69628906 C-24.99117318 62.91296137 -25.59430033 59.13017069 -26.19921875 55.34765625 C-26.30954437 54.65680939 -26.41987 53.96596252 -26.53353882 53.25418091 C-28.3654244 41.81022561 -30.34485039 30.40114579 -32.48706055 19.01074219 C-32.68726807 17.92438477 -32.88747559 16.83802734 -33.09375 15.71875 C-33.27139893 14.77443115 -33.44904785 13.8301123 -33.63208008 12.85717773 C-34.03813091 9.90567129 -34.07617338 7.07326574 -34.01171875 4.09765625 C-31.78321598 3.75991293 -29.55388408 3.42763755 -27.32421875 3.09765625 C-25.46216797 2.81921875 -25.46216797 2.81921875 -23.5625 2.53515625 C-20.65285504 2.17665214 -17.93471853 2.00823369 -15.01171875 2.09765625 C-13.86976604 5.9162138 -13.61322544 9.79796378 -13.29296875 13.75 C-13.23016724 14.48714737 -13.16736572 15.22429474 -13.10266113 15.98377991 C-12.90259165 18.3339901 -12.70670248 20.68451902 -12.51171875 23.03515625 C-12.31659274 25.38220895 -12.1204573 27.72915111 -11.92077637 30.07582092 C-11.79673865 31.53363206 -11.67527407 32.99166512 -11.5567627 34.44993591 C-11.24968431 38.06080401 -10.81094973 41.56157367 -10.01171875 45.09765625 C-9.99189941 44.40430176 -9.97208008 43.71094727 -9.95166016 42.99658203 C-9.53107252 28.94058957 -8.86739691 15.04226691 -7.01171875 1.09765625 C-4.30455633 0.19526878 -2.77395107 -0.02085677 0 0 Z " fill="#040405" transform="translate(213.01171875,351.90234375)"/>
<path d="M0 0 C1.78083984 -0.03867187 1.78083984 -0.03867187 3.59765625 -0.078125 C7.26663238 0.28233581 9.06250357 0.97460176 11.9375 3.25 C13.69453263 6.12105309 14.18059447 8.23338676 14.1328125 11.578125 C14.12636719 12.37734375 14.11992187 13.1765625 14.11328125 14 C14.09652344 14.825 14.07976562 15.65 14.0625 16.5 C14.05347656 17.34046875 14.04445312 18.1809375 14.03515625 19.046875 C14.01165817 21.11470604 13.97578908 23.18238995 13.9375 25.25 C8.9875 25.25 4.0375 25.25 -1.0625 25.25 C-1.5575 20.3 -1.5575 20.3 -2.0625 15.25 C-3.0525 15.25 -4.0425 15.25 -5.0625 15.25 C-5.90078924 22.34737622 -5.90078924 22.34737622 -3.1875 28.5 C-1.640625 29.36625 -1.640625 29.36625 -0.0625 30.25 C1.63840577 31.35462701 3.32478096 32.48179292 5 33.625 C6.25490234 34.44097656 6.25490234 34.44097656 7.53515625 35.2734375 C11.66493005 38.67126765 13.66054976 40.92934146 14.29663086 46.25927734 C14.44071993 49.93162229 14.43335663 53.57541479 14.375 57.25 C14.38208984 58.508125 14.38917969 59.76625 14.39648438 61.0625 C14.3532188 67.3459929 14.23073652 71.73748492 10.9375 77.25 C6.45686203 80.22273096 0.63828035 79.6553081 -4.5625 79.6875 C-5.49964844 79.72037109 -6.43679687 79.75324219 -7.40234375 79.78710938 C-12.13120821 79.82400123 -14.3213189 79.82553836 -18.15625 76.84765625 C-20.8324745 73.20075197 -21.18471208 71.49259943 -21.16015625 67.0234375 C-21.15693359 65.9921875 -21.15371094 64.9609375 -21.15039062 63.8984375 C-21.14201172 62.81820312 -21.13363281 61.73796875 -21.125 60.625 C-21.12048828 59.53703125 -21.11597656 58.4490625 -21.11132812 57.328125 C-21.0995179 54.63539338 -21.08158205 51.94268991 -21.0625 49.25 C-16.1125 49.25 -11.1625 49.25 -6.0625 49.25 C-6.0625 54.53 -6.0625 59.81 -6.0625 65.25 C-4.4125 65.25 -2.7625 65.25 -1.0625 65.25 C-1.3925 59.31 -1.7225 53.37 -2.0625 47.25 C-3.7125 46.59 -5.3625 45.93 -7.0625 45.25 C-8.96329582 44.16915532 -10.83814302 43.04167424 -12.6875 41.875 C-13.62851563 41.28976562 -14.56953125 40.70453125 -15.5390625 40.1015625 C-18.05660521 38.25432528 -19.43157755 36.88788798 -21.0625 34.25 C-21.43481445 31.7956543 -21.43481445 31.7956543 -21.42578125 29.07421875 C-21.42513672 28.08099609 -21.42449219 27.08777344 -21.42382812 26.06445312 C-21.40771484 25.03255859 -21.39160156 24.00066406 -21.375 22.9375 C-21.37822266 21.91720703 -21.38144531 20.89691406 -21.38476562 19.84570312 C-21.34537484 14.30592579 -21.12789167 9.42398116 -19.0625 4.25 C-13.28163662 0.30850224 -6.82535084 0.08912319 0 0 Z " fill="#030303" transform="translate(207.0625,260.75)"/>
<path d="M0 0 C5.37921928 2.5048273 10.0006886 5.91181683 12.99609375 11.12890625 C14.74999333 17.24642346 14.05486717 23.84015067 13.99609375 30.12890625 C8.05609375 30.12890625 2.11609375 30.12890625 -4.00390625 30.12890625 C-4.44140625 21.75390625 -4.44140625 21.75390625 -4.57202148 19.11962891 C-4.71386567 14.99156849 -4.71386567 14.99156849 -6.00390625 11.12890625 C-6.99390625 11.12890625 -7.98390625 11.12890625 -9.00390625 11.12890625 C-10.15682309 13.43473994 -10.15787963 14.82757512 -10.20922852 17.39501953 C-10.22917374 18.27578156 -10.24911896 19.15654358 -10.26966858 20.06399536 C-10.29473732 21.49218094 -10.29473732 21.49218094 -10.3203125 22.94921875 C-10.3410936 23.92301483 -10.36187469 24.89681091 -10.38328552 25.90011597 C-10.44879223 29.01797272 -10.50767122 32.13591528 -10.56640625 35.25390625 C-10.6095904 37.36459229 -10.65320465 39.47526958 -10.69726562 41.5859375 C-10.80447472 46.76683575 -10.90623903 51.94781981 -11.00390625 57.12890625 C-8.5312386 56.78445744 -8.5312386 56.78445744 -6.00390625 56.12890625 C-4.58755792 53.29620959 -4.65760575 50.65424187 -4.44140625 47.50390625 C-4.29703125 45.40015625 -4.15265625 43.29640625 -4.00390625 41.12890625 C1.93609375 41.12890625 7.87609375 41.12890625 13.99609375 41.12890625 C14.54516943 55.77092443 14.54516943 55.77092443 9.625 61.8125 C3.89832091 67.3194504 -3.91853532 70.26008073 -11.81640625 70.56640625 C-17.65036211 70.23422371 -21.37305439 68.04009118 -25.31640625 63.81640625 C-30.07450047 58.45886709 -29.18743011 50.8941877 -29.2421875 44.12890625 C-29.25025925 43.175 -29.25833099 42.22109375 -29.26664734 41.23828125 C-29.28043141 39.22788278 -29.29117875 37.21746147 -29.29907227 35.20703125 C-29.31062865 33.15487798 -29.33113763 31.10275562 -29.3605957 29.05078125 C-29.403254 26.0766164 -29.41943463 23.10333893 -29.4296875 20.12890625 C-29.44719559 19.21625 -29.46470367 18.30359375 -29.48274231 17.36328125 C-29.46373331 11.76828826 -28.75924866 8.55553488 -25.00390625 4.12890625 C-17.88671223 -2.14100276 -9.03910892 -2.62122404 0 0 Z " fill="#040404" transform="translate(302.00390625,353.87109375)"/>
<path d="M0 0 C2.26141861 1.88002092 3.68750551 3.37501102 5 6 C5.10397857 7.35678253 5.14860046 8.71839832 5.16113281 10.07910156 C5.17074036 10.92047668 5.1803479 11.76185181 5.19024658 12.62872314 C5.19449646 13.54015076 5.19874634 14.45157837 5.203125 15.390625 C5.20882507 16.327995 5.21452515 17.26536499 5.22039795 18.23114014 C5.22985565 20.21837228 5.23638498 22.20562017 5.24023438 24.19287109 C5.24991667 27.22391436 5.28092316 30.25427289 5.3125 33.28515625 C5.3190324 35.21614181 5.32428194 37.14713222 5.328125 39.078125 C5.3404718 39.98145569 5.3528186 40.88478638 5.36553955 41.81549072 C5.3474589 46.96046766 4.90623784 50.56343275 2 55 C-3.19950668 58.89963001 -8.79604038 58.298055 -15 58 C-14.98839844 58.92683594 -14.97679688 59.85367188 -14.96484375 60.80859375 C-14.95582031 62.00613281 -14.94679688 63.20367187 -14.9375 64.4375 C-14.92589844 65.63246094 -14.91429688 66.82742188 -14.90234375 68.05859375 C-15 71 -15 71 -16 72 C-20.62 72 -25.24 72 -30 72 C-30 49.56 -30 27.12 -30 4 C-7.00319234 -1.41101357 -7.00319234 -1.41101357 0 0 Z " fill="#040404" transform="translate(137,270)"/>
<path d="M0 0 C12.87 0 25.74 0 39 0 C39 4.62 39 9.24 39 14 C35.37 14 31.74 14 28 14 C28 33.14 28 52.28 28 72 C22.39 72 16.78 72 11 72 C11 52.86 11 33.72 11 14 C7.37 14 3.74 14 0 14 C0 9.38 0 4.76 0 0 Z " fill="#000000" transform="translate(229,352)"/>
<path d="M0 0 C5.97873264 0.11935764 5.97873264 0.11935764 7.08984375 1.23046875 C7.18009392 3.70833309 7.20558801 6.15512833 7.18359375 8.6328125 C7.18000854 9.39085678 7.17642334 10.14890106 7.17272949 10.92991638 C7.11306495 19.55437076 6.8594155 28.17300494 6.58984375 36.79296875 C6.54143441 38.40168574 6.49325643 40.0104097 6.4453125 41.61914062 C6.32947278 45.48966848 6.21056232 49.36009012 6.08984375 53.23046875 C0.64484375 53.72546875 0.64484375 53.72546875 -4.91015625 54.23046875 C-5.02919943 42.36583207 -4.91922927 30.50983298 -4.59176636 18.64944458 C-4.55401329 17.24464372 -4.51961193 15.8397488 -4.48855591 14.43478394 C-4.44344056 12.44586326 -4.38412249 10.45728021 -4.32421875 8.46875 C-4.29279785 7.31415283 -4.26137695 6.15955566 -4.22900391 4.9699707 C-3.86163767 1.81360279 -3.32637392 0.40134164 0 0 Z " fill="#F9F9F9" transform="translate(145.91015625,153.76953125)"/>
<path d="M0 0 C0.33 0 0.66 0 1 0 C1 4.29 1 8.58 1 13 C2.5675 13.12375 4.135 13.2475 5.75 13.375 C9.41591486 13.66441433 11.74776083 14.37388041 15 16 C16.8612315 16.45380588 18.72286174 16.90606826 20.58691406 17.34814453 C25.62315156 18.70860124 30.48502719 20.63147782 35.375 22.4375 C44.11004492 25.67386792 44.11004492 25.67386792 53 28.44140625 C59.11812152 30.22416606 64.83031538 32.87428353 70.625 35.5 C77.35767837 38.52890185 84.04776333 41.50864158 91 44 C91 45.32 91 46.64 91 48 C85.76055386 46.34543806 80.65746784 44.49530738 75.5625 42.4375 C59.40939177 35.92303464 43.20040479 29.61409337 26.6875 24.0625 C25.07149902 23.51468872 25.07149902 23.51468872 23.42285156 22.95581055 C16.84527958 20.78005052 10.27209652 19.05475951 3.49536133 17.61108398 C1 17 1 17 0 16 C-0.07319621 13.30345146 -0.09242537 10.63308542 -0.0625 7.9375 C-0.05798828 7.17888672 -0.05347656 6.42027344 -0.04882812 5.63867188 C-0.0370068 3.75908129 -0.01907078 1.87953101 0 0 Z " fill="#A4A6A9" transform="translate(393,265)"/>
<path d="M0 0 C13.2 0 26.4 0 40 0 C40 0.33 40 0.66 40 1 C27.13 1 14.26 1 1 1 C1 5.62 1 10.24 1 15 C4.63 15 8.26 15 12 15 C12 34.14 12 53.28 12 73 C17.61 73 23.22 73 29 73 C29 53.86 29 34.72 29 15 C32.63 15 36.26 15 40 15 C40 15.99 40 16.98 40 18 C36.7 18 33.4 18 30 18 C30 37.14 30 56.28 30 76 C23.73 76 17.46 76 11 76 C9.98218472 72.94655415 9.87902759 70.89716208 9.88647461 67.70239258 C9.88655014 66.62149857 9.88662567 65.54060455 9.88670349 64.42695618 C9.89186478 63.26125595 9.89702606 62.09555573 9.90234375 60.89453125 C9.9037587 59.70018967 9.90517365 58.50584808 9.90663147 57.27531433 C9.9122365 53.45435092 9.92478989 49.63344575 9.9375 45.8125 C9.94251435 43.22461022 9.94707737 40.63671952 9.95117188 38.04882812 C9.96220758 31.69919625 9.97947563 25.34960801 10 19 C6.7 19 3.4 19 0 19 C0 12.73 0 6.46 0 0 Z " fill="#5C5D5D" transform="translate(228,351)"/>
<path d="M0 0 C20.46 0 40.92 0 62 0 C62 2.97 62 5.94 62 9 C61.67 9 61.34 9 61 9 C61 6.36 61 3.72 61 1 C41.2 1 21.4 1 1 1 C1 7.27 1 13.54 1 20 C5.29 20 9.58 20 14 20 C14.76528192 29.4640747 15.13788364 38.77796891 15.09765625 48.2734375 C15.0962413 49.56319489 15.09482635 50.85295227 15.09336853 52.18179321 C15.08960795 55.5583705 15.07983555 58.93490259 15.06866455 62.3114624 C15.05830888 65.77794789 15.05384106 69.2444409 15.04882812 72.7109375 C15.03820524 79.47397842 15.02066354 86.23698236 15 93 C10.71 93 6.42 93 2 93 C2 99.27 2 105.54 2 112 C1.67 112 1.34 112 1 112 C1 105.4 1 98.8 1 92 C5.29 92 9.58 92 14 92 C13.95456055 89.86942139 13.95456055 89.86942139 13.90820312 87.69580078 C13.79447439 82.33939457 13.68326641 76.98293829 13.57275391 71.62646484 C13.52492062 69.32436751 13.47643701 67.02228357 13.42724609 64.72021484 C13.13765102 51.14470697 12.92093869 37.57877942 13 24 C8.71 24 4.42 24 0 24 C0 16.08 0 8.16 0 0 Z " fill="#737373" transform="translate(319,133)"/>
<path d="M0 0 C9.4129488 0.54857707 18.58785168 1.76922822 27.875 3.375 C29.20292261 3.60081912 30.53088517 3.82640341 31.85888672 4.05175781 C52.99781192 7.67407581 52.99781192 7.67407581 62 10 C62 10.99 62 11.98 62 13 C51.46465786 11.71832385 40.94934224 10.32797878 30.44360352 8.82275391 C28.17174572 8.49774622 25.89937357 8.17651604 23.62695312 7.85546875 C15.72012817 6.73056499 7.84216404 5.5214712 0 4 C0 2.68 0 1.36 0 0 Z " fill="#ABACAF" transform="translate(321,245)"/>
<path d="M0 0 C0.33 0.66 0.66 1.32 1 2 C0.67 2.99 0.34 3.98 0 5 C-0.11824282 7.28401706 -0.17698899 9.5712541 -0.20532227 11.8581543 C-0.21522186 12.55109589 -0.22512146 13.24403748 -0.23532104 13.95797729 C-0.2668896 16.24668978 -0.29167503 18.53542301 -0.31640625 20.82421875 C-0.33697979 22.41177406 -0.35797637 23.99932394 -0.37937927 25.58686829 C-0.43455861 29.76416628 -0.48398612 33.94151337 -0.53222656 38.11889648 C-0.5824718 42.38204312 -0.63814209 46.6451185 -0.69335938 50.90820312 C-0.80089036 59.2720768 -0.90184519 67.63601103 -1 76 C3.62 76 8.24 76 13 76 C13 71.05 13 66.1 13 61 C14.98 61 16.96 61 19 61 C19 65.95 19 70.9 19 76 C23.95 76 28.9 76 34 76 C34 76.99 34 77.98 34 79 C31.52076199 79.02685095 29.0418116 79.04676547 26.5625 79.0625 C25.85544922 79.07087891 25.14839844 79.07925781 24.41992188 79.08789062 C22.61306441 79.09653588 20.80612397 79.05220011 19 79 C18 78 18 78 17.90234375 74.83984375 C17.91394531 73.55207031 17.92554688 72.26429688 17.9375 70.9375 C17.94652344 69.64714844 17.95554688 68.35679687 17.96484375 67.02734375 C17.97644531 66.02832031 17.98804688 65.02929688 18 64 C16.68 64 15.36 64 14 64 C14 68.95 14 73.9 14 79 C11.545625 79.020625 9.09125 79.04125 6.5625 79.0625 C5.78849854 79.071604 5.01449707 79.08070801 4.21704102 79.09008789 C2.47778283 79.09724913 0.73854696 79.05024702 -1 79 C-2.6540556 77.3459444 -2.13162597 75.35996412 -2.14663696 73.14930725 C-2.14618378 72.45631027 -2.14573059 71.76331329 -2.14526367 71.04931641 C-2.15030159 69.959049 -2.15030159 69.959049 -2.15544128 68.84675598 C-2.16497984 66.43167434 -2.16689594 64.01666183 -2.16796875 61.6015625 C-2.17117968 59.92865978 -2.17454363 58.25575734 -2.17805481 56.58285522 C-2.18405361 53.07052967 -2.18589398 49.55822875 -2.18530273 46.04589844 C-2.18520115 41.54084694 -2.19884585 37.03595321 -2.21607494 32.5309391 C-2.22718412 29.07373324 -2.22922226 25.61656561 -2.22869301 22.15934372 C-2.22987505 20.49833 -2.23430934 18.83731534 -2.24202538 17.17631912 C-2.25180208 14.85392417 -2.24895637 12.53187292 -2.24291992 10.20947266 C-2.24853943 9.52052414 -2.25415894 8.83157562 -2.25994873 8.12174988 C-2.23604141 4.50962096 -2.0666851 3.10002765 0 0 Z " fill="#949596" transform="translate(227,264)"/>
<path d="M0 0 C0.33 0 0.66 0 1 0 C1.02532428 6.49616668 1.04285601 12.99232066 1.05493164 19.48852539 C1.059965 21.69914221 1.06679217 23.90975569 1.07543945 26.12036133 C1.08754859 29.295093 1.09323825 32.46978072 1.09765625 35.64453125 C1.10281754 36.63524124 1.10797882 37.62595123 1.11329651 38.64668274 C1.11337204 39.56741074 1.11344757 40.48813873 1.11352539 41.43676758 C1.115746 42.2472908 1.11796661 43.05781403 1.12025452 43.89289856 C1 46 1 46 0 49 C-11.70954775 49.13339991 -23.31514365 48.76532392 -35 48 C-35 46.68 -35 45.36 -35 44 C-23.27880816 43.82270466 -11.74596248 44.44066845 0 45 C0 30.15 0 15.3 0 0 Z " fill="#A8AAAC" transform="translate(310,198)"/>
<path d="M0 0 C0.33 0 0.66 0 1 0 C1 4.29 1 8.58 1 13 C2.5675 13.12375 4.135 13.2475 5.75 13.375 C9.41591486 13.66441433 11.74776083 14.37388041 15 16 C16.92850225 16.48621137 18.85773267 16.97003485 20.79296875 17.42871094 C24.61172297 18.41719378 28.29391491 19.7825879 32 21.125 C32.77472656 21.40214844 33.54945313 21.67929687 34.34765625 21.96484375 C36.23298801 22.63983907 38.11667206 23.31943377 40 24 C40 25.32 40 26.64 40 28 C33.52565043 26.54149268 27.28758827 24.81257488 21.0625 22.5 C15.26019209 20.35482603 9.50241742 18.83403594 3.44921875 17.578125 C1 17 1 17 0 16 C-0.07319621 13.30345146 -0.09242537 10.63308542 -0.0625 7.9375 C-0.05798828 7.17888672 -0.05347656 6.42027344 -0.04882812 5.63867188 C-0.0370068 3.75908129 -0.01907078 1.87953101 0 0 Z " fill="#9FA0A3" transform="translate(393,265)"/>
<path d="M0 0 C1.32 0 2.64 0 4 0 C4 11.55 4 23.1 4 35 C2.35 35 0.7 35 -1 35 C-1.0246519 30.17619198 -1.04283693 25.35242033 -1.05493164 20.52856445 C-1.05997174 18.88630536 -1.06680378 17.24405077 -1.07543945 15.60180664 C-1.08751926 13.24624521 -1.09323139 10.89074291 -1.09765625 8.53515625 C-1.10281754 7.79660904 -1.10797882 7.05806183 -1.11329651 6.2971344 C-1.1134925 4.53101912 -1.06194719 2.76502854 -1 1 C-0.67 0.67 -0.34 0.34 0 0 Z " fill="#F8F8F8" transform="translate(162,278)"/>
<path d="M0 0 C0.9075 0.845625 1.815 1.69125 2.75 2.5625 C6.96214587 6.21129303 11.65728808 8.80376663 16.5234375 11.484375 C19 13 19 13 20 15 C20.07181821 17.71760108 20.09299506 20.40859388 20.0625 23.125 C20.05798828 23.87910156 20.05347656 24.63320313 20.04882812 25.41015625 C20.03703499 27.27347127 20.01909942 29.13674555 20 31 C18.35 31 16.7 31 15 31 C15 25.72 15 20.44 15 15 C10.05 15 5.1 15 0 15 C0 14.67 0 14.34 0 14 C5.445 13.505 5.445 13.505 11 13 C9.741875 12.2575 8.48375 11.515 7.1875 10.75 C4.13559397 8.83243073 1.69338607 7.28093551 0 4 C0 2.68 0 1.36 0 0 Z " fill="#A3A4A6" transform="translate(186,295)"/>
<path d="M0 0 C2.475 0.495 2.475 0.495 5 1 C5 11.56 5 22.12 5 33 C3.35 33 1.7 33 0 33 C0 22.11 0 11.22 0 0 Z " fill="#FAFAFA" transform="translate(362,283)"/>
<path d="M0 0 C0.33 0 0.66 0 1 0 C1 26.4 1 52.8 1 80 C5.62 80 10.24 80 15 80 C15 71.75 15 63.5 15 55 C15.99 55 16.98 55 18 55 C18 55.99 18 56.98 18 58 C17.34 58 16.68 58 16 58 C16 66.25 16 74.5 16 83 C10.72 83 5.44 83 0 83 C0 55.61 0 28.22 0 0 Z " fill="#6C6C6C" transform="translate(265,260)"/>
<path d="M0 0 C0 1.32 0 2.64 0 4 C-0.67160156 4.18433594 -1.34320313 4.36867188 -2.03515625 4.55859375 C-12.87851119 7.70666454 -23.28090393 11.93067666 -33.75439453 16.1237793 C-35.48437873 16.79880792 -37.23827979 17.41275993 -39 18 C-39.0390625 15.75 -39.0390625 15.75 -38 13 C-35.31943405 11.21188015 -32.37589984 10.14396874 -29.375 9 C-28.52284912 8.6596875 -27.67069824 8.319375 -26.79272461 7.96875 C-6.57088956 0 -6.57088956 0 0 0 Z " fill="#A2A4A7" transform="translate(74,288)"/>
<path d="M0 0 C13.2 0 26.4 0 40 0 C40 0.33 40 0.66 40 1 C27.13 1 14.26 1 1 1 C1 5.62 1 10.24 1 15 C4.3 15 7.6 15 11 15 C11 34.14 11 53.28 11 73 C10.67 73 10.34 73 10 73 C10 55.18 10 37.36 10 19 C6.7 19 3.4 19 0 19 C0 12.73 0 6.46 0 0 Z " fill="#ACACAD" transform="translate(228,351)"/>
<path d="M0 0 C0 1.32 0 2.64 0 4 C-6.39694588 5.53940659 -12.6401302 6.5203224 -19.1875 7.125 C-20.48204102 7.25455078 -20.48204102 7.25455078 -21.80273438 7.38671875 C-26.21984767 7.81254605 -30.5563875 8.10181763 -35 8 C-35 6.68 -35 5.36 -35 4 C-30.4803462 3.32517032 -25.95910926 2.66158989 -21.4375 2 C-19.52227539 1.71382812 -19.52227539 1.71382812 -17.56835938 1.421875 C-16.32763672 1.24140625 -15.08691406 1.0609375 -13.80859375 0.875 C-12.67220459 0.70742187 -11.53581543 0.53984375 -10.36499023 0.3671875 C-6.88317638 -0.01274778 -3.49962556 -0.06225015 0 0 Z " fill="#A3A4A7" transform="translate(186,244)"/>
<path d="M0 0 C0.33 0 0.66 0 1 0 C1 8.58 1 17.16 1 26 C4.031875 25.319375 4.031875 25.319375 7.125 24.625 C16.31784101 22.65776932 25.56497707 20.81527817 35 21 C35 21.99 35 22.98 35 24 C30.96155166 24.83639666 26.92305743 25.67257135 22.88452148 26.50854492 C21.51211317 26.79266433 20.13971717 27.07684323 18.76733398 27.36108398 C16.78893256 27.77082907 14.81048241 28.1803389 12.83203125 28.58984375 C11.64327393 28.83597412 10.4545166 29.08210449 9.22973633 29.33569336 C6.48821035 29.89958271 3.74524835 30.45457143 1 31 C-0.06888524 27.52334905 -0.11475767 24.32862522 -0.09765625 20.703125 C-0.09443359 19.49785156 -0.09121094 18.29257813 -0.08789062 17.05078125 C-0.07951172 15.79652344 -0.07113281 14.54226562 -0.0625 13.25 C-0.05798828 11.98027344 -0.05347656 10.71054688 -0.04882812 9.40234375 C-0.03704556 6.26818164 -0.02059416 3.13411459 0 0 Z " fill="#9B9C9E" transform="translate(105,230)"/>
<path d="M0 0 C0 1.32 0 2.64 0 4 C-4.01999483 4.28752483 -8.04017691 4.57225991 -12.06054688 4.85449219 C-13.42616008 4.95074402 -14.79172124 5.04773737 -16.15722656 5.14550781 C-18.12811416 5.28649101 -20.09921216 5.42452298 -22.0703125 5.5625 C-23.25383301 5.64628906 -24.43735352 5.73007813 -25.65673828 5.81640625 C-28.7798138 5.98790857 -31.87308068 6.03330939 -35 6 C-35 4.68 -35 3.36 -35 2 C-23.26778439 0.18757497 -11.86273607 -0.23209701 0 0 Z " fill="#929496" transform="translate(232,241)"/>
<path d="M0 0 C1.98 0.495 1.98 0.495 4 1 C4 4.3 4 7.6 4 11 C8.95 11 13.9 11 19 11 C19 12.65 19 14.3 19 16 C5.07712245 17.92631593 5.07712245 17.92631593 1.125 15.25 C-1.90704773 10.61275053 -1.71623308 6.40347995 -1 1 C-0.67 0.67 -0.34 0.34 0 0 Z " fill="#9FA0A3" transform="translate(202,275)"/>
<path d="M0 0 C1.9375 0.375 1.9375 0.375 4 1 C5.65285959 4.30571917 5.1005118 7.995378 5.0625 11.625 C5.041875 14.38875 5.02125 17.1525 5 20 C10.94 20 16.88 20 23 20 C23 20.99 23 21.98 23 23 C16.73 23 10.46 23 4 23 C4 16.73 4 10.46 4 4 C2.35 4 0.7 4 -1 4 C-1 18.19 -1 32.38 -1 47 C-1.33 47 -1.66 47 -2 47 C-2.04938976 40.78866744 -2.08571476 34.57744888 -2.10986328 28.3659668 C-2.11992894 26.25233978 -2.13358257 24.1387267 -2.15087891 22.02514648 C-2.1751023 18.98938558 -2.18647738 15.95380857 -2.1953125 12.91796875 C-2.20563507 11.97100632 -2.21595764 11.02404388 -2.22659302 10.04838562 C-2.22674408 9.16769913 -2.22689514 8.28701263 -2.22705078 7.37963867 C-2.231492 6.60464523 -2.23593323 5.82965179 -2.24050903 5.03117371 C-2 3 -2 3 0 0 Z " fill="#888888" transform="translate(293,364)"/>
<path d="M0 0 C1.32 0 2.64 0 4 0 C4 10.56 4 21.12 4 32 C2.68 32 1.36 32 0 32 C0 21.44 0 10.88 0 0 Z " fill="#F2F2F2" transform="translate(241,279)"/>
<path d="M0 0 C4.62 0 9.24 0 14 0 C14 1.32 14 2.64 14 4 C9.71 4 5.42 4 1 4 C1.0721875 5.4334375 1.144375 6.866875 1.21875 8.34375 C2.04139182 25.90663957 2.10978182 43.42308691 2 61 C1.67 61 1.34 61 1 61 C-0.29184342 40.67653481 -0.09996983 20.35385825 0 0 Z " fill="#464646" transform="translate(367,154)"/>
<path d="M0 0 C0.33 0 0.66 0 1 0 C1 4.95 1 9.9 1 15 C1.66 15 2.32 15 3 15 C3.64217298 24.67846426 4.16831537 34.29381339 4 44 C2.68 44 1.36 44 0 44 C0 29.48 0 14.96 0 0 Z " fill="#E2E2E2" transform="translate(323,283)"/>
<path d="M0 0 C1.32 0 2.64 0 4 0 C4 9.24 4 18.48 4 28 C2.68 28 1.36 28 0 28 C0 18.76 0 9.52 0 0 Z " fill="#F2F2F2" transform="translate(122,288)"/>
<path d="M0 0 C0.65625 1.78125 0.65625 1.78125 1 4 C-1.86393218 9.26593981 -6.66120911 12.60674891 -12 15 C-14.81477775 15.56295555 -17.17213466 15.88708177 -20 16 C-21.3921875 16.05994141 -21.3921875 16.05994141 -22.8125 16.12109375 C-32.40162538 16.33786919 -32.40162538 16.33786919 -36.51953125 12.6328125 C-37.8125 11.125 -37.8125 11.125 -40 8 C-39.63671875 5.8046875 -39.63671875 5.8046875 -39 4 C-38.62488281 4.48210937 -38.24976563 4.96421875 -37.86328125 5.4609375 C-34.29718734 9.86241361 -31.889489 12.50296591 -26.07421875 13.24609375 C-18.34878127 13.69891691 -10.54000986 11.30758704 -4.4375 6.5 C-2.33492851 4.34351643 -1.0359673 2.79711171 0 0 Z " fill="#A6A7AA" transform="translate(314,410)"/>
<path d="M0 0 C0.75 1.6875 0.75 1.6875 1 4 C-1.46748413 7.9859359 -3.55643378 9.67989545 -8 11 C-11.17040821 11.33182968 -14.31421381 11.37012131 -17.5 11.375 C-18.76263672 11.41173828 -18.76263672 11.41173828 -20.05078125 11.44921875 C-24.23936491 11.46900733 -26.44743986 11.33907099 -30.09375 9.1015625 C-32 7 -32 7 -32 5 C-32.66 5 -33.32 5 -34 5 C-33.67 3.68 -33.34 2.36 -33 1 C-32.54625 1.804375 -32.0925 2.60875 -31.625 3.4375 C-30.25274335 6.08856572 -30.25274335 6.08856572 -28 7 C-26.46458362 7.09572647 -24.9251149 7.13074059 -23.38671875 7.1328125 C-22.46826172 7.13410156 -21.54980469 7.13539063 -20.60351562 7.13671875 C-19.64123047 7.13285156 -18.67894531 7.12898438 -17.6875 7.125 C-16.26147461 7.13080078 -16.26147461 7.13080078 -14.80664062 7.13671875 C-13.88431641 7.13542969 -12.96199219 7.13414062 -12.01171875 7.1328125 C-11.17084717 7.13168457 -10.32997559 7.13055664 -9.46362305 7.12939453 C-6.89313248 6.9943871 -4.50843786 6.56402745 -2 6 C-1.34 4.02 -0.68 2.04 0 0 Z " fill="#A0A2A4" transform="translate(220,332)"/>
<path d="M0 0 C1.65 0 3.3 0 5 0 C6 1 6 1 6.11352539 4.41821289 C6.11336628 5.93636988 6.10767226 7.45453229 6.09765625 8.97265625 C6.0962413 9.77029892 6.09482635 10.56794159 6.09336853 11.38975525 C6.08775316 13.94737435 6.07519812 16.50490718 6.0625 19.0625 C6.05748698 20.79231645 6.05292373 22.52213426 6.04882812 24.25195312 C6.03777875 28.50133553 6.02050386 32.75065312 6 37 C5.67 37 5.34 37 5 37 C5 26.44 5 15.88 5 5 C3.68 5 2.36 5 1 5 C1 15.56 1 26.12 1 37 C0.67 37 0.34 37 0 37 C0 24.79 0 12.58 0 0 Z " fill="#626363" transform="translate(240,274)"/>
<path d="M0 0 C2.97936216 0.1424517 5.9584442 0.28887994 8.9375 0.4375 C10.18370117 0.49647461 10.18370117 0.49647461 11.45507812 0.55664062 C17.00365014 0.83730769 22.48371637 1.33760065 28 2 C28 2.99 28 3.98 28 5 C18.36774517 5.26349633 9.4994651 4.61693023 0 3 C0 2.01 0 1.02 0 0 Z " fill="#AEAFB2" transform="translate(189,421)"/>
<path d="M0 0 C1.65 0.33 3.3 0.66 5 1 C5 11.23 5 21.46 5 32 C4.67 32 4.34 32 4 32 C4 23.09 4 14.18 4 5 C2.68 5 1.36 5 0 5 C0 14.24 0 23.48 0 33 C-0.33 33 -0.66 33 -1 33 C-1.02465392 28.46102295 -1.04283789 23.92208457 -1.05493164 19.38305664 C-1.0599714 17.83780234 -1.0668032 16.29255284 -1.07543945 14.74731445 C-1.08752076 12.53074971 -1.09323173 10.31424782 -1.09765625 8.09765625 C-1.10281754 7.4028566 -1.10797882 6.70805695 -1.11329651 5.99220276 C-1.11349277 4.3277067 -1.06189129 2.66334501 -1 1 C-0.67 0.67 -0.34 0.34 0 0 Z " fill="#6B6B6C" transform="translate(122,283)"/>
<path d="M0 0 C0.33 0 0.66 0 1 0 C1 2.31 1 4.62 1 7 C0.34 7 -0.32 7 -1 7 C-1.66 11.29 -2.32 15.58 -3 20 C-3.66 20 -4.32 20 -5 20 C-5.10183594 21.1446875 -5.20367187 22.289375 -5.30859375 23.46875 C-5.889024 28.11219201 -7.33554632 32.17259866 -9.0625 36.5 C-9.34416016 37.22703125 -9.62582031 37.9540625 -9.91601562 38.703125 C-10.60258448 40.47191255 -11.30013682 42.23643041 -12 44 C-13.36304352 40.31978249 -12.54995579 38.50723785 -11 35 C-10.53449579 33.19448945 -10.09865285 31.3811577 -9.6875 29.5625 C-8.25166319 23.64422848 -6.30565113 18.0055262 -4.20703125 12.29296875 C-2.71492778 8.22227871 -1.34958017 4.11977103 0 0 Z " fill="#959697" transform="translate(274,197)"/>
<path d="M0 0 C1.86785156 0.01353516 1.86785156 0.01353516 3.7734375 0.02734375 C5.18496094 0.04474609 5.18496094 0.04474609 6.625 0.0625 C6.625 1.3825 6.625 2.7025 6.625 4.0625 C0.025 4.3925 -6.575 4.7225 -13.375 5.0625 C-13.375 3.7425 -13.375 2.4225 -13.375 1.0625 C-8.85684719 0.17972245 -4.59987306 -0.04339503 0 0 Z " fill="#989A9C" transform="translate(29.375,162.9375)"/>
<path d="M0 0 C0.99 0 1.98 0 3 0 C3 0.99 3 1.98 3 3 C2.34 3 1.68 3 1 3 C1 11.25 1 19.5 1 28 C-4.28 28 -9.56 28 -15 28 C-15 27.01 -15 26.02 -15 25 C-10.05 25 -5.1 25 0 25 C0 16.75 0 8.5 0 0 Z " fill="#A3A4A7" transform="translate(280,315)"/>
<path d="M0 0 C1.67542976 0.28604898 3.34385343 0.61781233 5 1 C5 3.64 5 6.28 5 9 C4.67 7.68 4.34 6.36 4 5 C2.68 5 1.36 5 0 5 C0 19.52 0 34.04 0 49 C-0.33 49 -0.66 49 -1 49 C-1.0252689 42.18238106 -1.04283244 35.36477411 -1.05493164 28.54711914 C-1.05997333 26.22582549 -1.06680651 23.90453503 -1.07543945 21.58325195 C-1.08751225 18.25471205 -1.09322979 14.92621398 -1.09765625 11.59765625 C-1.10281754 10.55287613 -1.10797882 9.50809601 -1.11329651 8.43165588 C-1.11337204 7.47073532 -1.11344757 6.50981476 -1.11352539 5.51977539 C-1.115746 4.66928116 -1.11796661 3.81878693 -1.12025452 2.94252014 C-1 1 -1 1 0 0 Z " fill="#565656" transform="translate(323,278)"/>
<path d="M0 0 C4.62 0 9.24 0 14 0 C14 7.26 14 14.52 14 22 C13.67 22 13.34 22 13 22 C13 16.06 13 10.12 13 4 C8.71 4 4.42 4 0 4 C0 2.68 0 1.36 0 0 Z " fill="#ADAFB1" transform="translate(319,153)"/>
<path d="M0 0 C0.75 1.625 0.75 1.625 1 4 C-0.66437136 7.20071415 -2.07325373 9.40034065 -5.125 11.375 C-9.4536782 12.316017 -13.57452779 12.11801259 -18 12 C-18 15.3 -18 18.6 -18 22 C-18.33 22 -18.66 22 -19 22 C-19 17.71 -19 13.42 -19 9 C-17.30875 8.896875 -15.6175 8.79375 -13.875 8.6875 C-9.31529698 8.25911091 -5.80534442 7.73204214 -2 5 C-0.57442644 2.44278263 -0.57442644 2.44278263 0 0 Z " fill="#A8A9AB" transform="translate(141,319)"/>
<path d="M0 0 C0 1.32 0 2.64 0 4 C-2.0829243 4.64715133 -4.16635539 5.29267166 -6.25 5.9375 C-7.41015625 6.29714844 -8.5703125 6.65679687 -9.765625 7.02734375 C-12.17089058 7.75066637 -14.55654044 8.42542411 -17 9 C-17.33 8.34 -17.66 7.68 -18 7 C-19.98 7.33 -21.96 7.66 -24 8 C-21.89587102 5.89587102 -20.76915143 5.41841628 -18.0078125 4.4921875 C-17.22019531 4.22792969 -16.43257812 3.96367187 -15.62109375 3.69140625 C-14.79738281 3.42199219 -13.97367188 3.15257812 -13.125 2.875 C-12.30902344 2.59785156 -11.49304687 2.32070313 -10.65234375 2.03515625 C-9.86214844 1.77347656 -9.07195312 1.51179688 -8.2578125 1.2421875 C-7.5373877 1.0035498 -6.81696289 0.76491211 -6.07470703 0.51904297 C-4 0 -4 0 0 0 Z " fill="#9EA0A2" transform="translate(74,288)"/>
<path d="M0 0 C4.95 0.33 9.9 0.66 15 1 C15 2.65 15 4.3 15 6 C10.05 5.67 5.1 5.34 0 5 C0 3.35 0 1.7 0 0 Z " fill="#ABADAF" transform="translate(328,287)"/>
<path d="M0 0 C0.33 1.32 0.66 2.64 1 4 C-5.69613196 4.797837 -12.25766581 5.12910853 -19 5 C-19 4.01 -19 3.02 -19 2 C-15.15158652 0.81968762 -11.241721 0.66764649 -7.25 0.4375 C-6.20392578 0.37272461 -6.20392578 0.37272461 -5.13671875 0.30664062 C-3.42468078 0.20110404 -1.71236439 0.1001009 0 0 Z " fill="#A7A9AC" transform="translate(96,159)"/>
<path d="M0 0 C1.72274487 2.58411731 2.68895522 4.54902656 3.6875 7.4375 C3.95949219 8.19933594 4.23148438 8.96117187 4.51171875 9.74609375 C5.04729142 12.21829721 4.80445309 13.62983284 4 16 C3.34 14.02 2.68 12.04 2 10 C1.67 21.22 1.34 32.44 1 44 C0.67 44 0.34 44 0 44 C0 29.48 0 14.96 0 0 Z " fill="#BCBDBD" transform="translate(232,197)"/>
<path d="M0 0 C0.28875 0.639375 0.5775 1.27875 0.875 1.9375 C1.82823451 4.15206079 1.82823451 4.15206079 4 5 C4.05379226 7.95857409 4.09357093 10.91617721 4.125 13.875 C4.14175781 14.71675781 4.15851563 15.55851562 4.17578125 16.42578125 C4.18222656 17.23144531 4.18867188 18.03710938 4.1953125 18.8671875 C4.20578613 19.61081543 4.21625977 20.35444336 4.22705078 21.12060547 C4 23 4 23 2 25 C1.66068773 22.33397504 1.32842824 19.66736986 1 17 C0.90460938 16.25621094 0.80921875 15.51242187 0.7109375 14.74609375 C0.10772324 9.79111949 -0.09075591 4.99157504 0 0 Z " fill="#9D9D9D" transform="translate(200,374)"/>
<path d="M0 0 C4.95 0 9.9 0 15 0 C15 1.32 15 2.64 15 4 C10.05 4 5.1 4 0 4 C0 2.68 0 1.36 0 0 Z " fill="#A0A2A5" transform="translate(246,241)"/>
<path d="M0 0 C6.27 0 12.54 0 19 0 C19 0.99 19 1.98 19 3 C12.73 3 6.46 3 0 3 C0 2.01 0 1.02 0 0 Z " fill="#A8A9AC" transform="translate(239,424)"/>
<path d="M0 0 C6.27 0 12.54 0 19 0 C19 0.99 19 1.98 19 3 C12.73 3 6.46 3 0 3 C0 2.01 0 1.02 0 0 Z " fill="#A8A9AC" transform="translate(297,384)"/>
<path d="M0 0 C0.721875 0.00257813 1.44375 0.00515625 2.1875 0.0078125 C2.909375 0.00523437 3.63125 0.00265625 4.375 0 C6.1875 0.1328125 6.1875 0.1328125 7.1875 1.1328125 C7.26075168 3.99548817 7.27988205 6.8335315 7.25 9.6953125 C7.24548828 10.50162109 7.24097656 11.30792969 7.23632812 12.13867188 C7.22450518 14.13675006 7.20656914 16.13479033 7.1875 18.1328125 C6.8575 18.1328125 6.5275 18.1328125 6.1875 18.1328125 C6.1875 13.5128125 6.1875 8.8928125 6.1875 4.1328125 C2.8875 4.4628125 -0.4125 4.7928125 -3.8125 5.1328125 C-2.57649561 0.18879494 -2.57649561 0.18879494 0 0 Z " fill="#9FA0A2" transform="translate(145.8125,153.8671875)"/>
<path d="M0 0 C1.65 0 3.3 0 5 0 C5 0.99 5 1.98 5 3 C3.68 3 2.36 3 1 3 C1 7.29 1 11.58 1 16 C-3.95 16 -8.9 16 -14 16 C-14 15.34 -14 14.68 -14 14 C-9.38 14 -4.76 14 0 14 C0 9.38 0 4.76 0 0 Z " fill="#AAACAE" transform="translate(161,327)"/>
<path d="M0 0 C3.63 0 7.26 0 11 0 C11 0.99 11 1.98 11 3 C7.7 3.33 4.4 3.66 1 4 C1 9.94 1 15.88 1 22 C0.67 22 0.34 22 0 22 C0 14.74 0 7.48 0 0 Z " fill="#A2A3A5" transform="translate(140,228)"/>
<path d="M0 0 C1.32 0 2.64 0 4 0 C4 1.65 4 3.3 4 5 C2.68 5 1.36 5 0 5 C0 14.9 0 24.8 0 35 C-0.33 35 -0.66 35 -1 35 C-1.0246519 30.17619198 -1.04283693 25.35242033 -1.05493164 20.52856445 C-1.05997174 18.88630536 -1.06680378 17.24405077 -1.07543945 15.60180664 C-1.08751926 13.24624521 -1.09323139 10.89074291 -1.09765625 8.53515625 C-1.10281754 7.79660904 -1.10797882 7.05806183 -1.11329651 6.2971344 C-1.1134925 4.53101912 -1.06194719 2.76502854 -1 1 C-0.67 0.67 -0.34 0.34 0 0 Z " fill="#969798" transform="translate(162,278)"/>
<path d="M0 0 C2.475 0.495 2.475 0.495 5 1 C5 2.65 5 4.3 5 6 C3.68 5.67 2.36 5.34 1 5 C1 14.24 1 23.48 1 33 C0.67 33 0.34 33 0 33 C0 22.11 0 11.22 0 0 Z " fill="#989899" transform="translate(362,283)"/>
<path d="M0 0 C4.29 0 8.58 0 13 0 C13 1.32 13 2.64 13 4 C8.71 4 4.42 4 0 4 C0 2.68 0 1.36 0 0 Z " fill="#9B9DA0" transform="translate(368,154)"/>
<path d="M0 0 C5.28 0 10.56 0 16 0 C16 0.99 16 1.98 16 3 C11.05 3 6.1 3 1 3 C0.67 2.01 0.34 1.02 0 0 Z " fill="#A6A8AA" transform="translate(225,340)"/>
<path d="M0 0 C0.33 0 0.66 0 1 0 C1 7.92 1 15.84 1 24 C0.34 24 -0.32 24 -1 24 C-2.33583899 19.15758367 -3.25328119 15.06562383 -3 10 C-2.34 11.32 -1.68 12.64 -1 14 C-0.67 9.38 -0.34 4.76 0 0 Z " fill="#DFDFDF" transform="translate(287,262)"/>
<path d="M0 0 C4.95 0 9.9 0 15 0 C15 0.99 15 1.98 15 3 C10.05 3 5.1 3 0 3 C0 2.01 0 1.02 0 0 Z " fill="#A2A3A5" transform="translate(347,341)"/>
<path d="M0 0 C1.485 0.99 1.485 0.99 3 2 C3.29296875 5.2578125 3.29296875 5.2578125 3.1875 9.125 C3.16042969 10.40632813 3.13335937 11.68765625 3.10546875 13.0078125 C3.07066406 13.99523437 3.03585938 14.98265625 3 16 C2.01 16 1.02 16 0 16 C0 10.72 0 5.44 0 0 Z " fill="#FBFBFC" transform="translate(202,310)"/>
<path d="M0 0 C0.6640625 1.77734375 0.6640625 1.77734375 1 4 C-1.44262907 8.27000946 -5.4545638 12.13520566 -10 14 C-12.8125 13.6875 -12.8125 13.6875 -15 13 C-13.39453271 11.92968847 -11.77634221 10.87324528 -10.09765625 9.921875 C-5.34095766 7.18289308 -2.67925137 4.80032538 0 0 Z " fill="#96989A" transform="translate(314,410)"/>
<path d="M0 0 C0.928125 0.639375 1.85625 1.27875 2.8125 1.9375 C7.59218004 4.72072932 12.57734837 4.8038824 18 5 C18 5.66 18 6.32 18 7 C15.93867858 7.10864945 13.87568679 7.18588321 11.8125 7.25 C10.08966797 7.31960938 10.08966797 7.31960938 8.33203125 7.390625 C4.35233335 6.92407191 2.7448629 5.87409373 0 3 C0 2.01 0 1.02 0 0 Z " fill="#A8AAAC" transform="translate(309,336)"/>
<path d="M0 0 C1.98 0 3.96 0 6 0 C6 4.95 6 9.9 6 15 C5.67 15 5.34 15 5 15 C5 11.04 5 7.08 5 3 C3.68 3 2.36 3 1 3 C1 6.96 1 10.92 1 15 C0.67 15 0.34 15 0 15 C0 10.05 0 5.1 0 0 Z " fill="#6C6D6E" transform="translate(240,325)"/>
<path d="M0 0 C0.99 0 1.98 0 3 0 C3 3.96 3 7.92 3 12 C2.01 12 1.02 12 0 12 C0 8.04 0 4.08 0 0 Z " fill="#FEFEFE" transform="translate(324,315)"/>
<path d="M0 0 C1.98 0.495 1.98 0.495 4 1 C4 4.3 4 7.6 4 11 C3.67 11 3.34 11 3 11 C3 9.02 3 7.04 3 5 C2.01 5 1.02 5 0 5 C0 7.31 0 9.62 0 12 C-0.33 12 -0.66 12 -1 12 C-1.02687279 10.18757948 -1.04633715 8.37504767 -1.0625 6.5625 C-1.07410156 5.55316406 -1.08570313 4.54382813 -1.09765625 3.50390625 C-1 1 -1 1 0 0 Z " fill="#9C9D9F" transform="translate(202,275)"/>
<path d="M0 0 C1.9375 0.375 1.9375 0.375 4 1 C5.65497356 4.30994713 5.10084335 7.99123 5.0625 11.625 C5.05798828 12.42679687 5.05347656 13.22859375 5.04882812 14.0546875 C5.03703168 16.03649006 5.01909605 18.01825433 5 20 C4.67 20 4.34 20 4 20 C4 14.72 4 9.44 4 4 C2.35 4 0.7 4 -1 4 C-0.67 2.68 -0.34 1.36 0 0 Z " fill="#8D8E8F" transform="translate(293,364)"/>
<path d="M0 0 C0.99 0 1.98 0 3 0 C3 0.99 3 1.98 3 3 C2.34 3 1.68 3 1 3 C1 10.26 1 17.52 1 25 C0.67 25 0.34 25 0 25 C0 16.75 0 8.5 0 0 Z " fill="#6E6E6F" transform="translate(280,315)"/>
<path d="M0 0 C3.3 0 6.6 0 10 0 C10 0.99 10 1.98 10 3 C6.7 3 3.4 3 0 3 C0 2.01 0 1.02 0 0 Z " fill="#9D9FA2" transform="translate(229,366)"/>
<path d="M0 0 C3.3 0 6.6 0 10 0 C10 0.99 10 1.98 10 3 C6.7 3 3.4 3 0 3 C0 2.01 0 1.02 0 0 Z " fill="#9C9EA0" transform="translate(258,366)"/>
<path d="M0 0 C0.99 0 1.98 0 3 0 C3.33 2.97 3.66 5.94 4 9 C2.68 8.67 1.36 8.34 0 8 C0 5.36 0 2.72 0 0 Z " fill="#F5F5F5" transform="translate(202,280)"/>
<path d="M0 0 C-2 3 -2 3 -4.125 3.6875 C-4.74375 3.790625 -5.3625 3.89375 -6 4 C-6.33 3.34 -6.66 2.68 -7 2 C-8.98 2.33 -10.96 2.66 -13 3 C-9.54666565 -0.45333435 -4.63654999 -1.85462 0 0 Z " fill="#898A8D" transform="translate(63,293)"/>
<path d="M0 0 C2.475 0.495 2.475 0.495 5 1 C5 3.64 5 6.28 5 9 C4.67 7.68 4.34 6.36 4 5 C2.68 5 1.36 5 0 5 C0 3.35 0 1.7 0 0 Z " fill="#8C8E90" transform="translate(323,278)"/>
<path d="M0 0 C1.65 0 3.3 0 5 0 C5 0.99 5 1.98 5 3 C3.68 3 2.36 3 1 3 C1 6.63 1 10.26 1 14 C0.67 14 0.34 14 0 14 C0 9.38 0 4.76 0 0 Z " fill="#949596" transform="translate(161,327)"/>
<path d="M0 0 C1.65 0 3.3 0 5 0 C5 0.99 5 1.98 5 3 C3.68 3 2.36 3 1 3 C1 6.3 1 9.6 1 13 C0.67 13 0.34 13 0 13 C0 8.71 0 4.42 0 0 Z " fill="#9B9C9D" transform="translate(362,328)"/>
<path d="M0 0 C0.309375 0.639375 0.61875 1.27875 0.9375 1.9375 C1.8345163 3.93610821 1.8345163 3.93610821 3 5 C3.14115161 7.67058851 3.04247107 10.32432238 3 13 C0.41073669 10.41073669 0.62601957 8.97294721 0.375 5.375 C0.30023438 4.37210937 0.22546875 3.36921875 0.1484375 2.3359375 C0.09945313 1.56507813 0.05046875 0.79421875 0 0 Z " fill="#D9D9D9" transform="translate(284,272)"/>
<path d="M0 0 C0.68359375 1.765625 0.68359375 1.765625 1 4 C-0.21484375 5.921875 -0.21484375 5.921875 -1.9375 7.75 C-2.50339844 8.36359375 -3.06929688 8.9771875 -3.65234375 9.609375 C-4.31943359 10.29773438 -4.31943359 10.29773438 -5 11 C-5.33 10.01 -5.66 9.02 -6 8 C-4.4045651 5.94272868 -2.73473712 3.94125344 -1 2 C-0.67 1.34 -0.34 0.68 0 0 Z " fill="#9EA0A2" transform="translate(314,410)"/>
<path d="M0 0 C1.32 0 2.64 0 4 0 C4 1.65 4 3.3 4 5 C2.68 5 1.36 5 0 5 C0 3.35 0 1.7 0 0 Z " fill="#A2A4A7" transform="translate(241,274)"/>
<path d="M0 0 C1.32 0 2.64 0 4 0 C4 1.65 4 3.3 4 5 C2.68 4.67 1.36 4.34 0 4 C0 2.68 0 1.36 0 0 Z " fill="#A4A6A9" transform="translate(363,284)"/>
</svg>
